<?xml version="1.0" encoding="UTF-8"?>
<svg xmlns="http://www.w3.org/2000/svg" viewBox="0 0 420 760" width="420" height="760">
  <rect width="420" height="760" fill="#faf7f2"/>
  <text x="20" y="28" font-family="Helvetica,Arial,sans-serif" font-size="16" font-weight="700" fill="#2b2118">Sleep & Spirit — Anchor Map</text>
  <text x="20" y="46" font-family="Helvetica,Arial,sans-serif" font-size="11" fill="#6b5a4a">Primary anchors from sleep-spirit protocols</text>
  <g transform="translate(0,20)">
  <ellipse cx="200" cy="70" rx="42" ry="50" fill="#f3ebe1" stroke="#5c4a3a" stroke-width="2"/>
  <rect x="185" y="115" width="30" height="28" fill="#f3ebe1" stroke="#5c4a3a" stroke-width="2"/>
  <path d="M140 145 L260 145 L275 360 L250 390 L150 390 L125 360 Z" fill="#f3ebe1" stroke="#5c4a3a" stroke-width="2"/>
  <path d="M140 155 L85 300 L95 310 L150 200 Z" fill="#f3ebe1" stroke="#5c4a3a" stroke-width="2"/>
  <path d="M260 155 L315 300 L305 310 L250 200 Z" fill="#f3ebe1" stroke="#5c4a3a" stroke-width="2"/>
  <path d="M150 390 L145 680 L175 680 L185 390 Z" fill="#f3ebe1" stroke="#5c4a3a" stroke-width="2"/>
  <path d="M215 390 L225 680 L255 680 L250 390 Z" fill="#f3ebe1" stroke="#5c4a3a" stroke-width="2"/>
<circle cx="318" cy="335" r="6" fill="#2f6f6a" stroke="#fff" stroke-width="1.5"/><text x="308" y="327" text-anchor="end" font-family="Helvetica,Arial,sans-serif" font-size="9" font-weight="700" fill="#2b2118">HE-7</text><circle cx="230" cy="520" r="6" fill="#2f6f6a" stroke="#fff" stroke-width="1.5"/><text x="220" y="512" text-anchor="end" font-family="Helvetica,Arial,sans-serif" font-size="9" font-weight="700" fill="#2b2118">SP-6</text><circle cx="200" cy="78" r="6" fill="#2f6f6a" stroke="#fff" stroke-width="1.5"/><text x="190" y="70" text-anchor="end" font-family="Helvetica,Arial,sans-serif" font-size="9" font-weight="700" fill="#2b2118">M-HN-3</text><circle cx="248" cy="90" r="6" fill="#2f6f6a" stroke="#fff" stroke-width="1.5"/><text x="238" y="82" text-anchor="end" font-family="Helvetica,Arial,sans-serif" font-size="9" font-weight="700" fill="#2b2118">M-HN-34</text><circle cx="210" cy="680" r="6" fill="#2f6f6a" stroke="#fff" stroke-width="1.5"/><text x="200" y="672" text-anchor="end" font-family="Helvetica,Arial,sans-serif" font-size="9" font-weight="700" fill="#2b2118">KID-1</text><circle cx="305" cy="350" r="6" fill="#2f6f6a" stroke="#fff" stroke-width="1.5"/><text x="295" y="342" text-anchor="end" font-family="Helvetica,Arial,sans-serif" font-size="9" font-weight="700" fill="#2b2118">P-6</text><circle cx="255" cy="615" r="6" fill="#2f6f6a" stroke="#fff" stroke-width="1.5"/><text x="245" y="607" text-anchor="end" font-family="Helvetica,Arial,sans-serif" font-size="9" font-weight="700" fill="#2b2118">BL-62</text><circle cx="220" cy="625" r="6" fill="#2f6f6a" stroke="#fff" stroke-width="1.5"/><text x="210" y="617" text-anchor="end" font-family="Helvetica,Arial,sans-serif" font-size="9" font-weight="700" fill="#2b2118">KID-6</text></g>
  <rect x="310" y="55" width="95" height="164" fill="#fff" stroke="#d9cfc3" rx="6"/>
  <text x="320" y="72" font-family="Helvetica,Arial,sans-serif" font-size="10" font-weight="700" fill="#6b5a4a">POINTS</text>
  <g transform="translate(0,40)"><circle cx="330" cy="40" r="5" fill="#2f6f6a"/><text x="342" y="44" font-family="Helvetica,Arial,sans-serif" font-size="11" fill="#2b2118">HE-7</text><circle cx="330" cy="58" r="5" fill="#2f6f6a"/><text x="342" y="62" font-family="Helvetica,Arial,sans-serif" font-size="11" fill="#2b2118">SP-6</text><circle cx="330" cy="76" r="5" fill="#2f6f6a"/><text x="342" y="80" font-family="Helvetica,Arial,sans-serif" font-size="11" fill="#2b2118">M-HN-3</text><circle cx="330" cy="94" r="5" fill="#2f6f6a"/><text x="342" y="98" font-family="Helvetica,Arial,sans-serif" font-size="11" fill="#2b2118">M-HN-34</text><circle cx="330" cy="112" r="5" fill="#2f6f6a"/><text x="342" y="116" font-family="Helvetica,Arial,sans-serif" font-size="11" fill="#2b2118">KID-1</text><circle cx="330" cy="130" r="5" fill="#2f6f6a"/><text x="342" y="134" font-family="Helvetica,Arial,sans-serif" font-size="11" fill="#2b2118">P-6</text><circle cx="330" cy="148" r="5" fill="#2f6f6a"/><text x="342" y="152" font-family="Helvetica,Arial,sans-serif" font-size="11" fill="#2b2118">BL-62</text><circle cx="330" cy="166" r="5" fill="#2f6f6a"/><text x="342" y="170" font-family="Helvetica,Arial,sans-serif" font-size="11" fill="#2b2118">KID-6</text></g>
  <text x="20" y="745" font-family="Helvetica,Arial,sans-serif" font-size="9" fill="#8a7a6a">Educational approximation — verify locations in Deadman / atlas before needling.</text>
</svg>
